<?xml version="1.0" encoding="UTF-8" standalone="no"?>
<svg
   xmlns:dc="http://purl.org/dc/elements/1.1/"
   xmlns:cc="http://creativecommons.org/ns#"
   xmlns:rdf="http://www.w3.org/1999/02/22-rdf-syntax-ns#"
   xmlns:svg="http://www.w3.org/2000/svg"
   xmlns="http://www.w3.org/2000/svg"
   xmlns:sodipodi="http://sodipodi.sourceforge.net/DTD/sodipodi-0.dtd"
   xmlns:inkscape="http://www.inkscape.org/namespaces/inkscape"
   width="1000"
   height="1000"
   viewBox="0 0 264.5833 264.5833"
   inkscape:version="1.0.1 (3bc2e813f5, 2020-09-07)"
   sodipodi:docname="Instagram_logo_2022.svg"
   version="1.1"
   id="svg16">
  <metadata
     id="metadata20">
    <rdf:RDF>
      <cc:Work
         rdf:about="">
        <dc:format>image/svg+xml</dc:format>
        <dc:type
           rdf:resource="http://purl.org/dc/dcmitype/StillImage" />
      </cc:Work>
    </rdf:RDF>
  </metadata>
  <defs
     id="defs18" />
  <sodipodi:namedview
     pagecolor="#ffffff"
     bordercolor="#666666"
     borderopacity="1"
     inkscape:pageopacity="0"
     inkscape:pageshadow="2"
     inkscape:zoom="0.515"
     inkscape:cx="500"
     inkscape:cy="500"
     inkscape:document-units="mm"
     inkscape:current-layer="g14"
     inkscape:document-rotation="0"
     showgrid="false"
     inkscape:window-width="1920"
     inkscape:window-height="1009"
     inkscape:window-x="-8"
     inkscape:window-y="-8"
     inkscape:window-maximized="1"
     id="namedview2" />
  <g
     inkscape:label="Layer 1"
     inkscape:groupmode="layer"
     id="g14">
    <path
       d="M204.1503 18.1429c-55.2305 0-71.3834.057-74.5232.3175-11.3342.9424-18.387 2.7275-26.0708 6.554-5.9214 2.9413-10.5915 6.3506-15.2005 11.1298-8.3938 8.7157-13.481 19.4383-15.3226 32.1842-.8953 6.1877-1.1558 7.4496-1.2087 39.0558-.0203 10.5354 0 24.4007 0 42.9984 0 55.2008.061 71.3418.3256 74.4764.9157 11.032 2.6453 17.9728 6.3081 25.565 7 14.5329 20.369 25.4428 36.119 29.5137 5.4535 1.4044 11.4767 2.1779 19.2092 2.5442 3.2762.1425 36.6684.2443 70.081.2443 33.4127 0 66.8253-.0407 70.02-.2035 8.9535-.4214 14.1526-1.1195 19.9011-2.6054 15.8517-4.0912 28.9767-14.8383 36.119-29.5748 3.5916-7.409 5.4128-14.6144 6.237-25.0704.179-2.2796.2543-38.6263.2543-74.924 0-36.304-.0814-72.5835-.2605-74.8632-.8343-10.6249-2.6555-17.7692-6.363-25.3207-3.0421-6.1816-6.42-10.798-11.324-15.518-8.752-8.3616-19.4555-13.4502-32.2101-15.2902-6.18-.8936-7.411-1.1582-39.033-1.2131z"
       inkscape:connector-curvature="0"
       fill="url(#e)"
       transform="translate(-71.8155 -18.1429)"
       id="path4" />
    <path
       d="M204.1503 18.1429c-55.2305 0-71.3834.057-74.5232.3175-11.3342.9424-18.387 2.7275-26.0708 6.554-5.9214 2.9413-10.5915 6.3506-15.2005 11.1298-8.3938 8.7157-13.481 19.4383-15.3226 32.1842-.8953 6.1877-1.1558 7.4496-1.2087 39.0558-.0203 10.5354 0 24.4007 0 42.9984 0 55.2008.061 71.3418.3256 74.4764.9157 11.032 2.6453 17.9728 6.3081 25.565 7 14.5329 20.369 25.4428 36.119 29.5137 5.4535 1.4044 11.4767 2.1779 19.2092 2.5442 3.2762.1425 36.6684.2443 70.081.2443 33.4127 0 66.8253-.0407 70.02-.2035 8.9535-.4214 14.1526-1.1195 19.9011-2.6054 15.8517-4.0912 28.9767-14.8383 36.119-29.5748 3.5916-7.409 5.4128-14.6144 6.237-25.0704.179-2.2796.2543-38.6263.2543-74.924 0-36.304-.0814-72.5835-.2605-74.8632-.8343-10.6249-2.6555-17.7692-6.363-25.3207-3.0421-6.1816-6.42-10.798-11.324-15.518-8.752-8.3616-19.4555-13.4502-32.2101-15.2902-6.18-.8936-7.411-1.1582-39.033-1.2131z"
       inkscape:connector-curvature="0"
       fill="url(#f)"
       transform="translate(-71.8155 -18.1429)"
       id="path6" />
    <path
       d="M204.1503 18.1429c-55.2305 0-71.3834.057-74.5232.3175-11.3342.9424-18.387 2.7275-26.0708 6.554-5.9214 2.9413-10.5915 6.3506-15.2005 11.1298-8.3938 8.7157-13.481 19.4383-15.3226 32.1842-.8953 6.1877-1.1558 7.4496-1.2087 39.0558-.0203 10.5354 0 24.4007 0 42.9984 0 55.2008.061 71.3418.3256 74.4764.9157 11.032 2.6453 17.9728 6.3081 25.565 7 14.5329 20.369 25.4428 36.119 29.5137 5.4535 1.4044 11.4767 2.1779 19.2092 2.5442 3.2762.1425 36.6684.2443 70.081.2443 33.4127 0 66.8253-.0407 70.02-.2035 8.9535-.4214 14.1526-1.1195 19.9011-2.6054 15.8517-4.0912 28.9767-14.8383 36.119-29.5748 3.5916-7.409 5.4128-14.6144 6.237-25.0704.179-2.2796.2543-38.6263.2543-74.924 0-36.304-.0814-72.5835-.2605-74.8632-.8343-10.6249-2.6555-17.7692-6.363-25.3207-3.0421-6.1816-6.42-10.798-11.324-15.518-8.752-8.3616-19.4555-13.4502-32.2101-15.2902-6.18-.8936-7.411-1.1582-39.033-1.2131z"
       inkscape:connector-curvature="0"
       fill="url(#g)"
       transform="translate(-71.8155 -18.1429)"
       id="path8" />
    <path
       d="M204.1503 18.1429c-55.2305 0-71.3834.057-74.5232.3175-11.3342.9424-18.387 2.7275-26.0708 6.554-5.9214 2.9413-10.5915 6.3506-15.2005 11.1298-8.3938 8.7157-13.481 19.4383-15.3226 32.1842-.8953 6.1877-1.1558 7.4496-1.2087 39.0558-.0203 10.5354 0 24.4007 0 42.9984 0 55.2008.061 71.3418.3256 74.4764.9157 11.032 2.6453 17.9728 6.3081 25.565 7 14.5329 20.369 25.4428 36.119 29.5137 5.4535 1.4044 11.4767 2.1779 19.2092 2.5442 3.2762.1425 36.6684.2443 70.081.2443 33.4127 0 66.8253-.0407 70.02-.2035 8.9535-.4214 14.1526-1.1195 19.9011-2.6054 15.8517-4.0912 28.9767-14.8383 36.119-29.5748 3.5916-7.409 5.4128-14.6144 6.237-25.0704.179-2.2796.2543-38.6263.2543-74.924 0-36.304-.0814-72.5835-.2605-74.8632-.8343-10.6249-2.6555-17.7692-6.363-25.3207-3.0421-6.1816-6.42-10.798-11.324-15.518-8.752-8.3616-19.4555-13.4502-32.2101-15.2902-6.18-.8936-7.411-1.1582-39.033-1.2131z"
       inkscape:connector-curvature="0"
       fill="url(#h)"
       transform="translate(-71.8155 -18.1429)"
       id="path10" />
    <path
       d="m 132.34837,0.09005123 c -35.925561,0 -40.434157,0.1569248 -54.544349,0.79860884 C 63.721531,1.5330335 54.109046,3.7609088 45.698036,7.0298398 36.997785,10.405942 29.617478,14.922204 22.26487,22.272121 14.90675,29.619484 10.386993,36.994144 6.9973086,45.685252 3.7177545,54.092764 1.4854418,63.700813 0.85169135,77.767436 0.22063038,91.867004 0.05523397,96.375062 0.05523397,132.274 c 0,35.89908 0.15988317,40.39047 0.79914672,54.49003 0.64773511,14.07214 2.87722411,23.67749 6.14561721,32.08218 3.3814821,8.69394 7.9011051,16.06859 15.2565351,23.41583 7.350053,7.35274 14.730225,11.88016 23.424964,15.25626 8.416388,3.26879 18.031832,5.49667 32.111498,6.14118 14.110191,0.64141 18.615964,0.79847 54.538835,0.79847 35.9284,0 40.42327,-0.15691 54.53333,-0.7986 14.08263,-0.64438 23.70613,-2.87226 32.12253,-6.14118 8.69756,-3.37597 16.06684,-7.90339 23.41676,-15.25613 7.35812,-7.34724 11.87787,-14.72189 15.26756,-23.413 3.25185,-8.40752 5.48416,-18.01556 6.14562,-32.08219 0.63374,-14.09956 0.79914,-18.59391 0.79914,-54.49285 0,-35.899071 -0.1654,-40.404172 -0.79914,-54.503875 C 263.15617,63.697989 260.92386,54.092764 257.67201,45.688076 254.28232,36.994144 249.76257,29.61935 242.40445,22.272121 235.04619,14.91938 227.68794,10.403118 218.97948,7.0297053 210.54642,3.7609088 200.92842,1.5330335 186.84593,0.88866007 172.73575,0.24697603 168.24369,0.09005123 132.30709,0.09005123 Z M 120.48152,23.910756 c 3.52214,-0.0055 7.45198,0 11.86685,0 35.31939,0 39.50553,0.126669 53.45301,0.760016 12.89755,0.589376 19.89745,2.742756 24.56041,4.552031 6.17319,2.395825 10.57435,5.259872 15.20141,9.886263 4.62989,4.626525 7.49595,9.032657 9.89917,15.201134 1.81062,4.653957 3.96844,11.648744 4.5554,24.536749 0.63388,13.934306 0.77171,18.120179 0.77171,53.396801 0,35.27648 -0.13783,39.46249 -0.77171,53.3968 -0.58978,12.88787 -2.74478,19.88265 -4.5554,24.53661 -2.39757,6.16861 -5.26928,10.56103 -9.89917,15.1846 -4.62975,4.62652 -9.02553,7.49043 -15.20141,9.88626 -4.65744,1.81761 -11.66286,3.96548 -24.56041,4.55486 -13.94466,0.63334 -18.13362,0.77104 -53.45301,0.77104 -35.322066,0 -39.508207,-0.1377 -53.453002,-0.77104 -12.897418,-0.59476 -19.897314,-2.74827 -24.563104,-4.55755 -6.173184,-2.39583 -10.582678,-5.25987 -15.21243,-9.88626 -4.629888,-4.6264 -7.495951,-9.0215 -9.899174,-15.19293 -1.810619,-4.65396 -3.968436,-11.64875 -4.555391,-24.53662 -0.633885,-13.93444 -0.760689,-18.12018 -0.760689,-53.41885 0,-35.29854 0.126804,-39.462493 0.760689,-53.3968 0.589779,-12.888006 2.744772,-19.882658 4.555391,-24.542128 2.397575,-6.168611 5.269286,-10.574743 9.899174,-15.201134 4.629752,-4.626526 9.039246,-7.490438 15.21243,-9.891777 4.662966,-1.817612 11.665686,-3.965478 24.563104,-4.557678 12.203023,-0.550784 16.932149,-0.715911 41.586292,-0.743611 z m 82.47805,21.94796 c -8.76372,0 -15.87402,7.096714 -15.87402,15.856534 0,8.757266 7.1103,15.862182 15.87402,15.862182 8.76358,0 15.87388,-7.104916 15.87388,-15.862182 0,-8.757131 -7.1103,-15.861913 -15.87402,-15.861913 z m -70.6112,18.533265 c -37.515786,0 -67.932309,30.394067 -67.932309,67.882019 0,37.48796 30.416523,67.86817 67.932309,67.86817 37.5158,0 67.92143,-30.38021 67.92143,-67.86817 0,-37.487952 -30.40832,-67.882019 -67.92412,-67.882019 z m 0,23.820705 c 24.35092,0 44.09413,19.725734 44.09413,44.061314 0,24.3329 -19.74321,44.06132 -44.09413,44.06132 -24.3536,0 -44.093989,-19.72842 -44.093989,-44.06132 0,-24.33558 19.740389,-44.061314 44.093989,-44.061314 z"
       inkscape:connector-curvature="0"
       fill="#ffffff"
       id="path12"
       style="stroke-width:1" />
  </g>
</svg>
